<?xml version="1.0" standalone="no"?>
<!DOCTYPE svg PUBLIC "-//W3C//DTD SVG 20010904//EN"
 "http://www.w3.org/TR/2001/REC-SVG-20010904/DTD/svg10.dtd">
<svg version="1.0" xmlns="http://www.w3.org/2000/svg"
 width="1754.000000pt" height="1754.000000pt" viewBox="0 0 1754.000000 1754.000000"
 preserveAspectRatio="xMidYMid meet">

<g transform="translate(0.000000,1754.000000) scale(0.100000,-0.100000)"
fill="#000000" stroke="none">
<path d="M0 8770 l0 -8770 8770 0 8770 0 0 8770 0 8770 -8770 0 -8770 0 0
-8770z m8875 8016 c1835 -53 3656 -765 5075 -1985 208 -179 230 -200 485 -456
635 -636 1129 -1324 1533 -2135 233 -467 392 -871 538 -1370 49 -169 144 -544
144 -572 0 -17 -222 -18 -4530 -18 -2734 0 -4530 4 -4530 9 0 5 37 65 82 133
270 409 602 969 724 1223 69 145 93 228 123 440 19 134 37 315 34 343 -1 10 6
12 20 7 41 -13 174 -18 193 -7 16 9 14 12 -23 27 -44 18 -65 51 -42 66 8 4 61
19 119 33 200 47 263 90 373 254 122 182 167 287 167 387 0 84 -56 248 -137
399 -45 85 -104 148 -181 193 -43 25 -43 25 -97 8 -50 -15 -58 -15 -117 0 -35
10 -111 20 -171 22 -104 5 -108 5 -148 -22 -32 -21 -60 -29 -123 -35 -87 -9
-120 -17 -204 -52 -40 -17 -55 -19 -61 -10 -23 37 -120 146 -165 185 -141 121
-284 180 -631 257 -55 12 -122 31 -148 41 -114 45 -223 138 -355 305 -87 109
-142 144 -412 261 l-35 15 30 12 c61 23 92 49 135 119 65 103 118 167 277 333
227 240 423 478 567 694 110 164 157 293 191 530 19 132 60 300 78 316 26 25
703 65 957 57 30 -1 150 -4 265 -7z m-2837 -2593 c11 -27 36 -103 56 -169 50
-170 98 -299 156 -420 45 -94 60 -114 159 -212 120 -122 217 -255 335 -460
108 -190 169 -274 269 -376 l88 -90 -6 -50 c-4 -28 -10 -54 -14 -57 -5 -6 -78
-13 -361 -35 l-75 -6 -28 59 c-100 204 -419 598 -811 1000 -119 123 -175 187
-170 195 4 7 36 56 70 109 107 164 124 211 144 388 6 51 15 101 20 111 8 16
103 57 136 59 6 1 21 -20 32 -46z m598 -196 c120 -81 307 -205 414 -276 207
-135 275 -193 309 -259 28 -54 27 -77 -8 -164 -16 -40 -41 -113 -56 -163 -14
-49 -27 -94 -28 -98 -1 -5 -38 38 -81 94 -104 135 -114 146 -231 266 -55 57
-116 131 -137 165 -46 77 -139 194 -248 313 -82 90 -148 181 -190 264 l-22 44
29 -19 c17 -10 128 -85 249 -167z m-1504 -1294 c50 -54 202 -315 288 -498 128
-270 200 -431 200 -447 0 -10 -6 -18 -14 -18 -46 0 -24 -146 42 -275 35 -70
109 -159 168 -205 103 -80 121 -101 134 -161 12 -55 12 -57 -21 -119 -25 -47
-45 -70 -84 -94 -65 -42 -99 -83 -134 -161 -33 -73 -62 -105 -94 -105 -16 0
-35 -16 -62 -52 -43 -56 -46 -76 -30 -203 6 -53 5 -63 -15 -87 l-21 -28 -935
0 c-547 0 -934 4 -934 9 0 14 84 123 129 166 51 49 77 114 86 220 10 122 32
196 97 334 72 152 95 220 114 329 34 191 49 218 184 324 75 60 89 88 99 200
10 105 23 137 73 185 24 23 49 36 88 43 57 11 140 53 140 72 0 6 40 50 88 97
74 71 112 122 227 299 75 116 141 212 144 212 4 0 23 -17 43 -37z m1891 -555
c-14 -44 -27 -112 -32 -168 -4 -53 -12 -104 -18 -114 -8 -15 -12 -11 -28 31
-10 26 -38 88 -62 137 -24 48 -43 89 -41 91 6 7 192 95 199 95 4 0 -4 -33 -18
-72z m-1967 -2043 c-3 -9 -13 -41 -21 -73 -32 -115 -35 -118 -175 -172 -132
-51 -364 -202 -547 -356 -34 -29 -91 -66 -126 -82 -61 -29 -67 -35 -134 -139
-38 -59 -94 -147 -123 -195 l-53 -88 -485 0 -485 0 5 84 c6 120 32 167 166
302 168 169 222 272 222 427 0 51 20 82 93 142 33 27 81 76 105 107 l45 58
760 0 c679 0 759 -2 753 -15z m11632 -32 c31 -144 68 -390 91 -598 17 -153 41
-420 41 -462 0 -10 -898 -13 -4455 -13 -2450 0 -4455 2 -4455 5 0 3 20 32 44
65 48 65 78 144 96 254 6 38 20 87 31 109 30 57 35 132 14 202 -38 133 -87
192 -206 252 -66 32 -187 67 -274 78 -84 11 -105 16 -105 27 0 6 10 37 23 69
l22 59 4562 0 4561 0 10 -47z m-9331 -339 c3 -9 1 -53 -6 -98 -6 -44 -18 -166
-26 -269 -7 -104 -16 -191 -18 -194 -3 -3 -17 32 -31 77 -38 119 -48 134 -105
159 -27 11 -55 21 -61 21 -6 0 -9 8 -6 18 3 9 8 64 12 122 4 58 10 114 14 125
6 16 25 23 96 36 116 22 123 22 131 3z m-309 -174 c-15 -107 -21 -114 -109
-122 -73 -7 -84 1 -103 79 -27 117 -26 126 14 139 20 7 74 18 120 26 101 17
97 24 78 -122z m-294 38 c2 -7 30 -121 61 -253 32 -132 66 -264 76 -292 l18
-53 -34 0 -33 0 -63 193 c-59 181 -72 217 -121 326 -22 49 -19 54 37 75 51 18
55 19 59 4z m-446 -203 c25 -180 74 -328 123 -373 l23 -22 -492 0 -492 0 34
48 c19 26 55 66 80 90 24 23 54 59 66 80 26 46 66 72 110 72 50 0 200 54 359
130 80 39 153 69 161 67 11 -1 18 -27 28 -92z m231 -264 c16 -31 36 -73 44
-93 l16 -38 -38 0 -37 0 -18 78 c-10 42 -20 87 -23 100 -10 42 26 12 56 -47z
m-1425 -81 c56 -22 77 -20 204 16 22 6 23 4 20 -27 l-3 -34 -240 -3 -240 -2
32 19 c36 23 117 49 150 50 12 1 47 -8 77 -19z m-1370 -257 c-26 -38 -84 -117
-129 -178 -45 -60 -132 -180 -195 -265 -236 -324 -276 -377 -320 -430 -75 -91
-306 -355 -325 -370 -16 -13 -17 -13 -12 5 71 231 75 252 79 465 l4 205 39
120 c42 133 45 163 31 378 l-8 137 442 0 442 0 -48 -67z m1500 -6 c-19 -41
-38 -91 -41 -112 -5 -33 -4 -37 10 -29 18 10 167 194 167 207 0 4 258 7 573 7
l574 0 11 -22 c6 -13 25 -54 41 -92 17 -37 46 -89 64 -115 53 -74 83 -130 126
-235 22 -54 48 -107 58 -118 17 -19 106 -68 124 -68 13 0 11 67 -6 135 -8 33
-14 81 -15 106 0 41 -36 203 -56 253 -6 16 -4 17 17 11 39 -12 58 -34 147
-170 46 -71 100 -153 118 -182 41 -62 68 -83 107 -83 42 0 62 -14 107 -76 28
-37 68 -72 123 -108 55 -36 92 -68 112 -99 50 -76 102 -95 156 -57 19 14 48
22 91 24 76 4 116 23 155 73 88 112 64 267 -50 324 -23 12 -80 46 -126 76 -46
30 -113 65 -150 78 -36 13 -72 32 -79 42 -7 10 -25 37 -40 59 -15 23 -49 65
-75 94 -26 29 -46 54 -44 57 2 2 51 -15 108 -37 57 -22 115 -39 129 -38 19 2
36 22 75 85 l50 82 4513 1 4512 0 0 -322 c0 -178 -5 -397 -10 -488 -12 -213
-41 -513 -49 -523 -4 -4 -2992 -6 -6640 -5 l-6633 3 79 54 c165 115 321 239
398 316 81 81 82 82 227 376 193 388 211 415 357 536 l65 53 327 0 328 0 -35
-73z m1436 27 c36 -82 18 -76 -51 19 l-20 27 26 0 c21 0 29 -8 45 -46z m283
39 c-7 -2 -19 -2 -25 0 -7 3 -2 5 12 5 14 0 19 -2 13 -5z m339 -45 c58 -68
197 -276 205 -306 7 -30 -2 -38 -30 -25 -12 6 -34 15 -48 21 -18 7 -46 45 -94
129 -38 65 -83 144 -101 176 l-33 57 28 0 c22 0 39 -12 73 -52z m576 -526
c121 -64 133 -92 77 -188 -25 -42 -83 -80 -99 -64 -4 4 -3 31 3 60 16 73 14
105 -9 149 -20 39 -23 41 -157 101 -58 26 -64 41 -32 76 l21 22 57 -56 c35
-36 87 -73 139 -100z m-347 6 c35 -68 65 -110 124 -171 54 -55 66 -77 44 -77
-29 0 -103 68 -140 130 -12 19 -38 58 -57 87 -19 28 -31 56 -28 62 14 22 36
10 57 -31z m169 -27 c81 -30 90 -38 90 -79 0 -34 -23 -85 -32 -72 -2 3 -23 32
-47 65 -24 33 -56 73 -70 89 -22 25 -23 28 -6 21 11 -4 40 -15 65 -24z m9052
-877 c3 -3 2 -22 -3 -42 -4 -20 -11 -62 -14 -92 -4 -30 -13 -86 -20 -125 -7
-38 -19 -100 -26 -137 -7 -37 -16 -65 -20 -63 -4 3 -5 -4 -2 -14 5 -18 -20
-147 -52 -271 -8 -30 -16 -66 -19 -80 -5 -24 -37 -145 -86 -325 -12 -44 -29
-102 -38 -130 l-17 -50 -7412 0 -7411 0 20 28 c11 16 23 26 26 23 2 -3 0 -12
-6 -19 -9 -10 -8 -14 2 -14 9 0 13 9 11 26 -3 27 21 64 37 55 4 -3 7 -2 6 3
-2 5 7 22 20 38 19 24 25 27 33 15 8 -12 9 -11 5 5 -8 31 15 53 52 50 28 -2
30 0 22 16 -7 12 -7 20 0 24 5 3 10 11 10 18 0 6 -6 2 -14 -8 -8 -11 -12 -26
-9 -35 4 -13 4 -13 -6 0 -9 12 -11 13 -11 1 0 -8 -3 -12 -6 -9 -10 10 51 106
101 159 34 36 53 49 67 46 11 -3 22 0 25 9 3 8 9 12 13 9 5 -3 11 -1 14 4 4 5
-2 8 -11 6 -10 -2 -22 -4 -26 -4 -5 -1 -5 -6 -1 -13 5 -7 3 -8 -5 -3 -16 10
46 76 68 72 9 -1 15 4 13 12 -4 19 78 94 127 116 l40 17 140 -46 c183 -60 208
-63 257 -38 43 23 94 67 94 82 0 6 5 10 11 10 8 0 7 -6 -2 -17 -13 -15 -12
-15 12 0 14 10 29 14 34 10 4 -5 5 -3 1 4 -4 7 -13 10 -21 6 -19 -7 -19 2 1
32 10 15 23 22 35 20 11 -2 17 0 14 6 -4 5 -11 6 -17 3 -6 -4 -8 -1 -6 7 3 8
11 13 17 11 7 -1 10 2 7 7 -8 13 104 113 120 107 8 -3 13 0 11 6 -1 6 20 20
47 31 43 18 50 19 60 5 10 -14 13 -14 26 0 13 14 12 15 -3 9 -9 -3 -17 -3 -17
2 0 5 20 14 45 21 49 14 53 21 56 98 2 39 6 52 18 53 11 0 12 2 3 6 -10 4 -10
8 -1 19 9 11 9 13 -2 9 -8 -3 -23 9 -36 27 -18 26 -20 35 -10 47 10 14 10 14
-5 3 -10 -8 -14 -20 -11 -29 5 -13 2 -15 -12 -9 -11 4 -17 4 -13 1 3 -4 -7
-19 -23 -34 -31 -31 -37 -43 -15 -35 8 3 16 15 19 26 4 12 10 17 17 13 9 -6 9
-10 -1 -16 -8 -5 -9 -9 -3 -9 5 0 15 5 22 12 15 15 42 19 42 7 0 -5 -6 -9 -14
-9 -7 0 -19 -7 -26 -15 -11 -13 -109 -49 -116 -42 -3 2 70 84 139 156 23 24
67 63 97 87 l55 44 6726 0 c3699 0 6728 -2 6731 -6z m-13608 -192 c2 -4 -5 -9
-17 -9 -17 -2 -19 0 -7 7 18 12 18 12 24 2z"/>
<path d="M3280 7360 c-20 -15 -20 -16 -1 -16 11 0 19 5 18 10 -1 5 17 9 41 7
53 -3 56 6 2 11 -25 2 -47 -2 -60 -12z"/>
<path d="M6708 7363 c1827 -2 4817 -2 6645 0 1827 1 332 2 -3323 2 -3655 0
-5150 -1 -3322 -2z"/>
<path d="M6703 7343 c1831 -2 4823 -2 6650 0 1827 1 330 2 -3328 2 -3657 0
-5152 -1 -3322 -2z"/>
<path d="M3250 7312 c0 -5 7 -9 15 -9 8 0 12 4 9 9 -3 4 -9 8 -15 8 -5 0 -9
-4 -9 -8z"/>
<path d="M3196 7295 c-11 -8 -16 -15 -11 -15 5 0 1 -6 -9 -13 -17 -13 -18 -14
-2 -20 9 -4 14 -3 11 2 -3 5 0 13 6 17 6 3 15 0 20 -7 6 -9 9 -10 9 -2 0 6 -5
15 -10 18 -8 5 -7 11 1 21 15 18 9 17 -15 -1z"/>
<path d="M16681 7274 c0 -11 3 -14 6 -6 3 7 2 16 -1 19 -3 4 -6 -2 -5 -13z"/>
<path d="M16692 7200 c0 -19 2 -27 5 -17 2 9 2 25 0 35 -3 9 -5 1 -5 -18z"/>
<path d="M16671 7184 c0 -11 3 -14 6 -6 3 7 2 16 -1 19 -3 4 -6 -2 -5 -13z"/>
<path d="M16682 7140 c0 -14 2 -19 5 -12 2 6 2 18 0 25 -3 6 -5 1 -5 -13z"/>
<path d="M3211 7143 c-1 -17 16 -25 25 -12 4 7 3 9 -4 5 -5 -3 -13 0 -15 6 -4
9 -6 10 -6 1z"/>
<path d="M3196 7105 c-3 -8 -1 -15 4 -15 6 0 10 7 10 15 0 8 -2 15 -4 15 -2 0
-6 -7 -10 -15z"/>
<path d="M16670 7066 c0 -8 4 -17 9 -20 5 -4 7 3 4 14 -6 23 -13 26 -13 6z"/>
<path d="M3181 7044 c0 -11 3 -14 6 -6 3 7 2 16 -1 19 -3 4 -6 -2 -5 -13z"/>
<path d="M3200 7040 c0 -5 5 -10 11 -10 5 0 7 5 4 10 -3 6 -8 10 -11 10 -2 0
-4 -4 -4 -10z"/>
<path d="M3177 7014 c-4 -4 -7 -14 -7 -23 0 -11 3 -12 11 -4 6 6 10 16 7 23
-2 6 -7 8 -11 4z"/>
<path d="M3201 7004 c0 -11 3 -14 6 -6 3 7 2 16 -1 19 -3 4 -6 -2 -5 -13z"/>
<path d="M3145 6970 c-4 -6 -14 -9 -23 -5 -9 3 -13 3 -9 -1 4 -4 -1 -16 -10
-28 -12 -13 -6 -10 19 8 26 19 37 23 41 14 2 -7 7 -10 11 -7 4 3 0 12 -8 18
-10 9 -16 9 -21 1z"/>
<path d="M2975 6921 c-6 -11 13 -26 22 -17 4 3 1 6 -6 6 -7 0 -9 5 -6 10 3 6
4 10 1 10 -3 0 -7 -4 -11 -9z"/>
<path d="M2890 6865 c-8 -10 -9 -15 -2 -15 6 0 9 -8 6 -17 -4 -11 -3 -14 3 -7
4 6 15 14 23 17 11 4 11 6 -4 6 -12 1 -16 6 -12 16 3 8 4 15 2 15 -2 0 -9 -7
-16 -15z"/>
<path d="M2965 6870 c3 -5 8 -10 11 -10 2 0 4 5 4 10 0 6 -5 10 -11 10 -5 0
-7 -4 -4 -10z"/>
<path d="M2862 6831 c-11 -6 -10 -10 0 -19 11 -8 14 -7 14 9 0 10 0 19 -1 19
0 0 -6 -4 -13 -9z"/>
<path d="M16616 6757 c3 -10 9 -15 12 -12 3 3 0 11 -7 18 -10 9 -11 8 -5 -6z"/>
<path d="M2811 6714 c6 -7 16 -11 21 -8 11 7 3 17 -18 20 -12 2 -13 -1 -3 -12z"/>
<path d="M16602 6710 c0 -14 2 -19 5 -12 2 6 2 18 0 25 -3 6 -5 1 -5 -13z"/>
<path d="M2278 6673 c24 -12 30 -18 20 -25 -8 -5 -2 -6 17 -2 23 4 26 3 15 -5
-8 -6 -10 -11 -4 -11 6 0 18 8 25 17 8 9 9 14 3 10 -6 -3 -28 3 -50 13 -21 11
-43 20 -49 20 -5 0 5 -8 23 -17z"/>
<path d="M2776 6678 c3 -4 11 -5 19 -1 21 7 19 12 -4 10 -11 0 -18 -5 -15 -9z"/>
<path d="M2215 6670 c-3 -6 1 -7 9 -4 9 3 16 1 16 -5 0 -6 5 -11 11 -11 8 0 8
5 -1 15 -14 17 -26 19 -35 5z"/>
<path d="M2730 6651 c-7 -13 -7 -22 0 -26 11 -7 11 -8 14 23 3 27 0 28 -14 3z"/>
<path d="M2177 6646 c-15 -12 -15 -15 -2 -26 8 -6 20 -10 27 -7 8 4 7 6 -4 6
-10 1 -18 5 -18 11 0 5 6 8 13 6 6 -1 9 -1 4 1 -4 3 -5 9 -1 14 7 12 2 11 -19
-5z"/>
<path d="M16591 6638 c0 -9 -4 -25 -7 -35 -5 -17 -5 -17 6 0 6 10 9 25 7 35
-4 15 -5 15 -6 0z"/>
<path d="M2389 6637 c-1 -4 -2 -13 -3 -19 -1 -7 -8 -12 -15 -10 -7 1 -9 -2 -6
-8 5 -8 12 -7 23 3 10 8 27 13 39 12 12 -1 20 2 17 7 -4 5 -12 7 -19 4 -7 -2
-18 1 -24 7 -6 6 -12 8 -12 4z"/>
<path d="M2690 6636 c0 -2 8 -10 18 -17 15 -13 16 -12 3 4 -13 16 -21 21 -21
13z"/>
<path d="M2110 6590 c-8 -5 -11 -12 -7 -16 4 -4 15 0 24 9 18 18 8 23 -17 7z"/>
<path d="M2520 6560 c-23 -8 -22 -8 8 -7 19 1 36 5 38 9 6 10 -13 9 -46 -2z"/>
<path d="M2621 6544 c0 -11 3 -14 6 -6 3 7 2 16 -1 19 -3 4 -6 -2 -5 -13z"/>
<path d="M16541 6483 c0 -25 1 -26 9 -8 12 27 12 35 0 35 -5 0 -10 -12 -9 -27z"/>
<path d="M1987 6459 c7 -7 15 -10 18 -7 3 3 -2 9 -12 12 -14 6 -15 5 -6 -5z"/>
<path d="M16522 6425 c6 -14 13 -24 14 -22 6 6 -9 47 -17 47 -5 0 -3 -11 3
-25z"/>
<path d="M16540 6439 c0 -5 5 -7 10 -4 6 3 10 8 10 11 0 2 -4 4 -10 4 -5 0
-10 -5 -10 -11z"/>
<path d="M1937 6413 c4 -10 2 -14 -4 -10 -6 4 -17 -1 -24 -11 -13 -15 -12 -16
3 -4 13 10 17 10 21 0 4 -11 6 -10 6 0 1 7 6 10 12 6 8 -4 8 0 0 15 -14 25
-23 28 -14 4z"/>
<path d="M16526 6377 c3 -10 9 -15 12 -12 3 3 0 11 -7 18 -10 9 -11 8 -5 -6z"/>
<path d="M16481 6244 c0 -11 3 -14 6 -6 3 7 2 16 -1 19 -3 4 -6 -2 -5 -13z"/>
<path d="M1795 6242 c-11 -11 8 -21 24 -12 10 5 21 7 25 5 3 -3 4 -2 1 2 -6 8
-43 12 -50 5z"/>
<path d="M16438 6220 c-14 -16 -15 -21 -4 -27 7 -4 17 -19 21 -32 5 -16 4 -21
-4 -17 -7 5 -11 -3 -11 -21 l0 -28 14 27 c8 16 18 33 22 40 5 7 3 8 -6 3 -10
-6 -12 -1 -7 26 5 26 4 30 -4 19 -9 -12 -10 -11 -6 8 6 27 6 27 -15 2z"/>
<path d="M1749 6178 c-8 -27 -5 -35 12 -31 15 4 17 8 8 19 -11 13 -18 17 -20
12z"/>
<path d="M1700 6110 c0 -5 7 -7 15 -4 8 4 15 8 15 10 0 2 -7 4 -15 4 -8 0 -15
-4 -15 -10z"/>
<path d="M1758 6113 c6 -2 18 -2 25 0 6 3 1 5 -13 5 -14 0 -19 -2 -12 -5z"/>
<path d="M16375 6110 c3 -5 8 -10 11 -10 2 0 4 5 4 10 0 6 -5 10 -11 10 -5 0
-7 -4 -4 -10z"/>
<path d="M16405 6110 c-3 -6 1 -7 9 -4 18 7 21 14 7 14 -6 0 -13 -4 -16 -10z"/>
<path d="M16416 6082 c-3 -5 1 -9 9 -9 8 0 15 4 15 9 0 4 -4 8 -9 8 -6 0 -12
-4 -15 -8z"/>
</g>
</svg>
